<svg preserveAspectRatio="xMinYMid meet" x="25" y="0" viewBox="0 0 825.37 130.28" width="500" height="25">
  <defs>
    <style>.cls-1{fill:#fff;}</style>
  </defs>
  <title>Resurs 5</title>
  <g id="Lager_2" data-name="Lager 2">
    <g id="Lager_1-2" data-name="Lager 1">
      <polygon class="cls-1" points="821.87 126.78 821.87 123.28 7 123.28 7 7 818.37 7 818.37 126.78 821.87 126.78 821.87 123.28 821.87 126.78 825.37 126.78 825.37 0 0 0 0 130.28 825.37 130.28 825.37 126.78 821.87 126.78"/>
      <polygon class="cls-1" points="87.45 40.53 87.45 53.37 75.61 65.2 87.45 76.94 87.45 89.78 62.98 65.2 63.08 65.2 62.98 65.1 87.45 40.53"/>
      <polygon class="cls-1" points="151.25 37.42 131.59 37.42 131.59 101.91 122.56 101.91 122.56 37.42 102.4 37.42 102.4 28.39 151.25 28.39 151.25 37.42"/>
      <polygon class="cls-1" points="214.94 28.39 214.94 101.91 205.91 101.91 205.91 70.02 175.12 70.02 175.12 101.91 166.09 101.91 166.09 28.39 175.12 28.39 175.12 60.99 205.91 60.99 205.91 28.39 214.94 28.39"/>
      <path class="cls-1" d="M244,101.91h-9V28.35h9Z"/>
      <path class="cls-1" d="M282.44,37.42a11.35,11.35,0,0,0-4.51.9,11.56,11.56,0,0,0-3.66,2.44,11.4,11.4,0,0,0-2.46,3.65,11.25,11.25,0,0,0-.9,4.49v.2a11,11,0,0,0,.9,4.45,12.18,12.18,0,0,0,2.46,3.64,11.08,11.08,0,0,0,3.66,2.5,11.35,11.35,0,0,0,4.51.9h4.42a18.78,18.78,0,0,1,6.92,1.26,25.24,25.24,0,0,1,5.92,3.26,20.4,20.4,0,0,1,5.56,7,20.09,20.09,0,0,1,2.06,9v.2a20.24,20.24,0,0,1-1.61,8,21.17,21.17,0,0,1-4.36,6.58,20.21,20.21,0,0,1-14.49,6h-25v-9h25a11.19,11.19,0,0,0,4.51-.91A11.7,11.7,0,0,0,295,89.53a11.49,11.49,0,0,0,2.46-3.67,11.32,11.32,0,0,0,.9-4.51v-.2a11,11,0,0,0-.9-4.46A12.27,12.27,0,0,0,295,73a11.22,11.22,0,0,0-3.66-2.51,11.35,11.35,0,0,0-4.51-.9H282A20.54,20.54,0,0,1,263.44,57a19.9,19.9,0,0,1-1.56-7.88V49a19.92,19.92,0,0,1,1.61-8,20.56,20.56,0,0,1,11-11,20.08,20.08,0,0,1,8-1.6h24.88v9Z"/>
      <path class="cls-1" d="M352.74,101.91h-9V28h9Z"/>
      <path class="cls-1" d="M392.56,37.42a11.39,11.39,0,0,0-4.51.9,11.36,11.36,0,0,0-6.12,6.09,11.25,11.25,0,0,0-.9,4.49v.2a11,11,0,0,0,.9,4.45,12.37,12.37,0,0,0,2.46,3.64,11.19,11.19,0,0,0,3.66,2.5,11.39,11.39,0,0,0,4.51.9H397a18.78,18.78,0,0,1,6.92,1.26,25.24,25.24,0,0,1,5.92,3.26,20.4,20.4,0,0,1,5.56,7,20.09,20.09,0,0,1,2.06,9v.2a20.41,20.41,0,0,1-1.6,8,21.19,21.19,0,0,1-4.37,6.58,20.21,20.21,0,0,1-14.49,6H372v-9h25a11.19,11.19,0,0,0,4.51-.91,11.37,11.37,0,0,0,6.12-6.12,11.32,11.32,0,0,0,.9-4.51v-.2a11,11,0,0,0-.9-4.46A12.27,12.27,0,0,0,405.15,73a11,11,0,0,0-3.66-2.51,11.35,11.35,0,0,0-4.51-.9h-4.82A20.54,20.54,0,0,1,373.56,57,19.9,19.9,0,0,1,372,49.15V49a20.09,20.09,0,0,1,1.61-8,20.56,20.56,0,0,1,11-11,20.12,20.12,0,0,1,8-1.6h24.88v9Z"/>
      <path class="cls-1" d="M501.1,101.91H483.34a36.24,36.24,0,0,1-14-2.75,36.6,36.6,0,0,1-20-20,37.09,37.09,0,0,1,0-28.08,36.54,36.54,0,0,1,20-20,36.25,36.25,0,0,1,14-2.76H501.1v9H483.34a26.72,26.72,0,0,0-10.78,2.2,28.34,28.34,0,0,0-8.82,6,27.53,27.53,0,0,0-5.92,8.83,28,28,0,0,0,0,21.56,27.49,27.49,0,0,0,14.74,14.75,27.2,27.2,0,0,0,10.78,2.16H501.1Z"/>
      <path class="cls-1" d="M551,101.91a36,36,0,0,1-26-10.73,35.8,35.8,0,0,1-8-11.94,37.34,37.34,0,0,1,0-28.18,36,36,0,0,1,8-11.94,36.12,36.12,0,0,1,26-10.73,36.09,36.09,0,0,1,14,2.76,36.52,36.52,0,0,1,11.84,8,36.9,36.9,0,0,1-11.84,60A36.09,36.09,0,0,1,551,101.91Zm0-64.49a27.34,27.34,0,0,0-10.78,2.15,27.58,27.58,0,0,0-16.9,25.63A27.16,27.16,0,0,0,525.42,76a27.46,27.46,0,0,0,14.75,14.75,28,28,0,0,0,21.56,0,27.69,27.69,0,0,0,8.83-5.92,28.33,28.33,0,0,0,6-8.83,26.69,26.69,0,0,0,2.2-10.78,27,27,0,0,0-2.2-10.88,28.33,28.33,0,0,0-6-8.83,27.69,27.69,0,0,0-8.83-5.92A27.34,27.34,0,0,0,551,37.42Z"/>
      <path class="cls-1" d="M604.81,92.89h17.56a27.7,27.7,0,0,0,19.71-8.08,28.5,28.5,0,0,0,6-8.83,27.51,27.51,0,0,0,0-21.56,28.09,28.09,0,0,0-14.8-14.8,27,27,0,0,0-10.88-2.2H604.81v-9h17.56a36.85,36.85,0,0,1,14.14,2.76,36.31,36.31,0,0,1,11.94,8A36.35,36.35,0,0,1,659.28,65.2a36.09,36.09,0,0,1-2.76,14,36.76,36.76,0,0,1-8.07,11.94,36.18,36.18,0,0,1-11.94,8,36.84,36.84,0,0,1-14.14,2.75H604.81Z"/>
      <path class="cls-1" d="M724,37.42H675.13v-9H724Zm-19.66,32.3H675.13v-9h29.19ZM724,101.91H675.13v-9H724Z"/>
      <polygon class="cls-1" points="762.9 65.2 763 65.2 738.52 89.78 738.52 76.94 750.36 65.2 738.52 53.37 738.52 40.53 763 65.1 762.9 65.2"/>
    </g>
  </g>
</svg>